<?xml version="1.0" encoding="UTF-8"?>
<svg id="Layer_2" data-name="Layer 2" xmlns="http://www.w3.org/2000/svg" viewBox="0 0 36.85 36.85">
  <defs>
    <style>
      .cls-1 {
        fill: #fff;
      }

      .cls-2, .cls-3 {
        fill: #f5aa2e;
      }

      .cls-4 {
        fill: #f6aa30;
      }

      .cls-4, .cls-3 {
        stroke: #fff;
        stroke-miterlimit: 10;
      }

      .cls-3 {
        stroke-width: .5px;
      }
    </style>
  </defs>
  <circle class="cls-4" cx="18.43" cy="18.43" r="16.91"/>
  <path class="cls-1" d="m13.41,25.69c-.31,0-.57-.26-.57-.57s.26-.57.57-.57h3.07c.2,0,.37-.16.37-.37v-.74c0-.2-.16-.37-.37-.37h-3.68c-.31,0-.57-.26-.57-.57s.26-.57.57-.57h3.68c.2,0,.37-.16.37-.37v-.74c0-.2-.16-.37-.37-.37h-3.68c-.31,0-.57-.26-.57-.57s.26-.57.57-.57h3.68c.2,0,.37-.16.37-.37v-.74c0-.2-.16-.37-.37-.37h-3.68c-.31,0-.57-.26-.57-.57s.26-.57.57-.57h3.68c.2,0,.37-.16.37-.37v-.74c0-.2-.16-.37-.37-.37h-3.68c-.31,0-.57-.26-.57-.57s.26-.57.57-.57h3.68c.2,0,.37-.16.37-.37v-.74c0-.2-.16-.37-.37-.37h-3.07c-.31,0-.57-.26-.57-.57s.26-.57.57-.57h3.07c.2,0,.37-.16.37-.37v-.37c0-.79-.64-1.44-1.44-1.44h-2.82c-2.75,0-4.98,2.23-4.98,4.98v8.49c0,2.59,2.1,4.69,4.69,4.69h3.11c.79,0,1.44-.64,1.44-1.44h0c0-.21-.16-.37-.37-.37h-3.07Z"/>
  <g>
    <g>
      <path class="cls-1" d="m25.69,21.81c-1.41-.73-1.65-.94-1.84-.79-.2.14-.04.5.22,2.07.4,2.34.32,3.47,1.21,3.99.71.41,1.99.66,2.95-.03.96-.7,1.11-1.99.94-2.8-.22-1.01-1.38-1.34-3.48-2.44Z"/>
      <path class="cls-1" d="m21.82,21.81c1.41-.73,1.65-.94,1.84-.79.2.14.04.5-.22,2.07-.4,2.34-.32,3.47-1.21,3.99-.71.41-1.99.66-2.95-.03-.96-.7-1.11-1.99-.94-2.8.22-1.01,1.38-1.34,3.48-2.44Z"/>
    </g>
    <g>
      <path class="cls-1" d="m23.76,20.25c.04.31-3.82-.94-4.49-5.11-.41-2.57.64-5.45,2.25-5.78h0l2.24,10.89Z"/>
      <path class="cls-1" d="m23.76,20.25c-.04.31,3.82-.94,4.49-5.11.41-2.57-.64-5.45-2.25-5.78h0l-2.24,10.89Z"/>
    </g>
  </g>
  <g>
    <circle class="cls-2" cx="20.61" cy="25.06" r=".85"/>
    <circle class="cls-2" cx="26.9" cy="25.06" r=".85"/>
  </g>
  <circle class="cls-3" cx="23.76" cy="20.86" r="1.28"/>
</svg>