<?xml version="1.0" encoding="UTF-8"?>
<svg id="Layer_2" data-name="Layer 2" xmlns="http://www.w3.org/2000/svg" viewBox="0 0 36.85 36.85">
  <defs>
    <style>
      .cls-1 {
        fill: #fff;
      }

      .cls-2 {
        stroke: #fff;
        stroke-miterlimit: 10;
      }

      .cls-2, .cls-3 {
        fill: #f05266;
      }
    </style>
  </defs>
  <circle class="cls-2" cx="18.43" cy="18.43" r="16.91"/>
  <path class="cls-1" d="m27.78,13.32c-1.08-1.79-2.88-2.25-3.28-2.3-3.93-.46-6.08,2.48-6.08,2.48h0s-2.15-2.95-6.08-2.48c-.4.05-2.2.5-3.28,2.3-1.44,2.39-.54,5.75,1.24,8.58,1.24,1.97,3.89,5.2,8.12,7.6,4.22-2.39,6.88-5.62,8.12-7.6,1.78-2.83,2.68-6.18,1.24-8.58Z"/>
  <polygon class="cls-3" points="22.68 18.48 20.18 18.48 20.18 15.98 16.68 15.98 16.68 18.48 14.18 18.48 14.18 21.98 16.68 21.98 16.68 24.48 20.18 24.48 20.18 21.98 22.68 21.98 22.68 18.48"/>
</svg>