<?xml version="1.0" encoding="UTF-8"?>
<svg id="Layer_2" data-name="Layer 2" xmlns="http://www.w3.org/2000/svg" viewBox="0 0 36.85 36.85">
  <defs>
    <style>
      .cls-1 {
        fill: #fff;
      }

      .cls-2 {
        stroke: #60c4b0;
        stroke-width: .1px;
      }

      .cls-2, .cls-3 {
        stroke-miterlimit: 10;
      }

      .cls-2, .cls-4 {
        fill: #60c4b0;
      }

      .cls-3 {
        fill: #5ec3b0;
        stroke: #fff;
      }
    </style>
  </defs>
  <circle class="cls-3" cx="18.43" cy="18.43" r="16.91"/>
  <path class="cls-1" d="m28.71,15.87l-10.05-8.32c-.14-.11-.34-.11-.47,0l-10.05,8.32c-.27.22-.11.66.24.66h1.55v12.65h17v-12.65h1.55c.35,0,.5-.43.24-.66Z"/>
  <path class="cls-4" d="m18.43,19.72c-2.05,0-3.72,1.65-3.72,3.7v5.96h7.44v-5.96c0-2.04-1.66-3.7-3.72-3.7Z"/>
  <g>
    <g>
      <circle class="cls-4" cx="16.85" cy="11.4" r=".57"/>
      <circle class="cls-4" cx="20" cy="11.4" r=".57"/>
    </g>
    <g>
      <path class="cls-4" d="m17.07,13.88c.16.26.42.33.48.33.57.07.88-.36.88-.36h0s.31.43.88.36c.06,0,.32-.07.48-.33.21-.35.08-.84-.18-1.25-.12-.19-.34-.47-.66-.74-.3-.25-.75-.25-1.05,0-.32.27-.53.54-.66.74-.26.41-.39.9-.18,1.25Z"/>
      <circle class="cls-4" cx="18.43" cy="10.65" r=".57"/>
    </g>
  </g>
  <g>
    <path class="cls-2" d="m13.58,18.38c-.07,0-.13-.02-.18-.07s-.07-.1-.07-.17v-1.86c0-.07.02-.13.07-.17s.11-.07.18-.07.13.02.18.07c.05.04.07.1.07.17v.53c0,.07.04.11.11.11h.75c.07,0,.11-.04.11-.11v-.53c0-.07.02-.13.07-.17s.11-.07.18-.07.13.02.18.07c.05.04.07.1.07.17v1.86c0,.07-.02.13-.07.17-.05.04-.11.06-.18.06s-.13-.02-.18-.06c-.05-.04-.07-.1-.07-.17v-.65c0-.07-.04-.11-.11-.11h-.75c-.07,0-.11.04-.11.11v.65c0,.07-.02.13-.07.17-.05.04-.11.06-.18.06Z"/>
    <path class="cls-2" d="m16.85,18.38c-.22,0-.42-.05-.59-.16-.18-.11-.31-.25-.42-.43s-.15-.38-.15-.6.05-.43.15-.6.24-.31.41-.42c.17-.1.37-.15.59-.15s.42.05.59.15c.17.1.31.24.41.42.1.18.15.38.15.6s-.05.42-.15.6c-.1.18-.24.32-.41.43s-.37.16-.59.16Zm0-.44c.19,0,.34-.07.46-.21.12-.14.18-.32.18-.53s-.06-.39-.18-.53c-.12-.14-.28-.21-.46-.21s-.35.07-.47.21c-.12.14-.19.31-.19.53s.06.39.19.53c.12.14.28.21.47.21Z"/>
    <path class="cls-2" d="m19.05,18.38c-.07,0-.13-.02-.18-.06-.05-.04-.07-.1-.07-.17v-1.45c0-.11-.06-.17-.17-.17h-.27c-.07,0-.12-.02-.16-.06-.04-.04-.06-.1-.06-.16s.02-.12.06-.16.1-.06.16-.06h1.37c.07,0,.13.02.17.06s.06.1.06.16-.02.12-.06.16c-.04.04-.1.06-.17.06h-.27c-.11,0-.17.06-.17.17v1.45c0,.07-.02.13-.07.17-.05.04-.11.06-.18.06Z"/>
    <path class="cls-2" d="m20.63,18.32c-.11,0-.19-.03-.26-.1s-.1-.15-.1-.26v-1.54c0-.11.03-.19.09-.25s.15-.09.25-.09h.84c.16,0,.23.07.23.22,0,.06-.02.12-.07.16-.04.04-.1.06-.17.06h-.57c-.07,0-.11.04-.11.11v.22c0,.07.04.11.11.11h.49c.07,0,.13.02.17.06.04.04.06.09.06.16,0,.06-.02.11-.07.16-.05.04-.1.07-.16.07h-.49c-.07,0-.11.04-.11.11v.24c0,.07.04.11.11.11h.63c.07,0,.13.02.17.06s.06.1.06.17c0,.06-.02.12-.07.16-.04.04-.1.06-.17.06h-.88Z"/>
    <path class="cls-2" d="m22.49,18.32c-.11,0-.19-.03-.26-.1s-.1-.15-.1-.26v-1.68c0-.07.02-.13.07-.17s.11-.07.18-.07.13.02.18.07c.05.04.07.1.07.17v1.42c0,.11.06.17.17.17h.49c.07,0,.12.02.16.06.04.04.06.1.06.16s-.02.12-.06.16c-.04.04-.1.06-.16.06h-.8Z"/>
  </g>
</svg>