<?xml version="1.0" encoding="UTF-8"?>
<svg id="Layer_2" data-name="Layer 2" xmlns="http://www.w3.org/2000/svg" viewBox="0 0 80.11 56.67">
  <defs>
    <style>
      .cls-1 {
        fill: #fdfcea;
      }

      .cls-2 {
        fill: #fcd34d;
      }

      .cls-3 {
        stroke: #fcfcec;
      }

      .cls-3, .cls-4 {
        fill: none;
        stroke-miterlimit: 10;
        stroke-width: .5px;
      }

      .cls-4 {
        stroke: #fdfcea;
      }

      .cls-5 {
        fill: #c88b2b;
      }

      .cls-6 {
        fill: #f9be23;
      }
    </style>
  </defs>
  <g>
    <circle class="cls-1" cx="3.87" cy="29.13" r="1.38"/>
    <circle class="cls-1" cx="3.2" cy="18.53" r=".67"/>
    <circle class="cls-1" cx="5.24" cy="41.68" r="1.05"/>
    <circle class="cls-3" cx="10.47" cy="39.07" r="1.12"/>
    <circle class="cls-1" cx="8.49" cy="14.61" r=".67"/>
  </g>
  <g>
    <circle class="cls-1" cx="76.24" cy="29.13" r="1.38"/>
    <circle class="cls-1" cx="76.91" cy="18.53" r=".67"/>
    <circle class="cls-1" cx="74.86" cy="41.68" r="1.05"/>
    <circle class="cls-4" cx="69.64" cy="39.07" r="1.12"/>
    <circle class="cls-1" cx="71.61" cy="14.61" r=".67"/>
  </g>
  <g>
    <path class="cls-5" d="m35.73,3.96L15.68,23.92c-.33.33-.31.88.06,1.18l20.35,16.74c2.31,1.9,5.63,1.9,7.94,0l20.35-16.74c.37-.3.39-.85.06-1.18L44.38,3.96c-2.39-2.38-6.26-2.38-8.65,0Z"/>
    <g>
      <g>
        <path class="cls-1" d="m59.53,2.13H20.58c-.29,0-.53.22-.53.5v27.07s.02.07.05.09l16.41,12.86c2.06,1.61,5.03,1.61,7.09,0l16.41-12.86s.05-.06.05-.09V2.63c0-.28-.24-.5-.53-.5Z"/>
        <g>
          <path class="cls-5" d="m24.2,10.23c-.09,0-.16-.03-.2-.09-.05-.06-.06-.14-.04-.23.01-.06.03-.12.06-.18s.06-.14.09-.23c.04-.09.08-.21.12-.35.04-.14.09-.33.13-.56.03-.13.05-.27.07-.41s.04-.28.06-.41.03-.24.04-.34c.01-.1.02-.16.03-.2.02-.09.06-.17.12-.23s.15-.1.25-.1c.13,0,.24.04.34.11.09.07.18.17.25.29.07.12.13.26.19.41.05.15.1.31.14.48.04.17.08.33.12.49.04.16.08.31.12.45.04.14.09.25.14.35.05.1.12.16.19.19l-.35.14s.1-.1.14-.15c.05-.05.09-.12.13-.21.04-.09.07-.2.1-.34.04-.18.07-.36.09-.53.02-.17.05-.33.07-.49.02-.16.05-.31.09-.46.04-.15.09-.3.16-.46.05-.1.09-.17.14-.22.05-.04.11-.06.18-.06.1,0,.16.03.21.08.04.05.07.11.07.18,0,.07,0,.14-.03.2-.06.15-.1.29-.14.42s-.06.27-.08.4-.04.27-.06.41-.05.3-.08.47c-.05.23-.1.43-.16.61-.06.18-.15.32-.25.42-.1.1-.24.15-.41.15-.11,0-.21-.03-.29-.09s-.15-.15-.21-.26-.11-.24-.15-.38c-.04-.14-.08-.29-.12-.45-.04-.16-.08-.32-.12-.49-.04-.16-.09-.32-.15-.48-.06-.15-.12-.29-.21-.42l.11-.02c0,.14-.02.26-.03.37-.01.11-.03.21-.04.3s-.03.19-.05.28c-.07.28-.14.54-.21.77s-.14.44-.22.61c-.03.08-.08.14-.14.18-.06.05-.13.07-.23.07Z"/>
          <path class="cls-5" d="m29.08,10.19c-.24,0-.44-.04-.6-.11-.16-.07-.29-.17-.38-.3s-.15-.28-.17-.45c-.02-.17-.02-.35.02-.54.02-.12.06-.24.1-.37.04-.13.09-.26.15-.38.06-.13.12-.25.2-.37.06-.11.14-.2.23-.27.09-.07.18-.1.28-.1.04,0,.08.01.11.03.04.02.06.05.07.09.01.04,0,.09-.02.15-.06.1-.12.21-.19.34s-.13.27-.19.42c-.06.15-.1.31-.14.48-.03.15-.03.29,0,.41.04.12.1.21.19.28.09.07.21.1.36.1s.26,0,.37-.03c.1-.02.19-.04.27-.06.07-.02.14-.05.19-.06.05-.02.1-.03.13-.03.08,0,.14.02.17.07.04.05.05.11.03.2-.02.1-.08.18-.17.26s-.23.14-.4.18c-.17.04-.37.07-.61.07Zm-.65-1.22c-.07.02-.13.01-.16-.01-.03-.02-.05-.06-.06-.11,0-.05,0-.1,0-.15.02-.08.06-.14.12-.2.07-.06.15-.1.24-.11.09-.02.19-.04.3-.05.11-.02.22-.03.33-.05s.23-.03.35-.04c.12-.01.24-.02.37-.02.12,0,.2.02.24.07.04.04.05.11.04.19-.02.1-.08.18-.17.23-.09.05-.2.08-.31.09-.13,0-.26.02-.38.03s-.24.03-.34.04c-.11.02-.21.03-.31.05s-.18.03-.26.05Zm.16-1.33c-.14,0-.25-.03-.31-.09-.06-.06-.08-.13-.06-.22,0-.05.02-.09.06-.13.03-.04.08-.07.15-.09.22-.06.45-.1.69-.13s.47-.06.69-.07c.22-.01.4-.02.55-.02.14,0,.25.04.32.11.07.07.09.16.07.26-.01.06-.04.11-.09.15s-.11.06-.21.06c-.24,0-.45,0-.65.03-.2.02-.37.04-.53.06-.16.02-.29.04-.4.06s-.2.03-.27.03Z"/>
          <path class="cls-5" d="m33.89,10.22c-.07,0-.13,0-.18-.03-.05-.02-.1-.05-.14-.1-.04-.05-.09-.11-.13-.2-.04-.09-.07-.19-.1-.3-.02-.12-.04-.24-.05-.38-.01-.13-.02-.27-.03-.4,0-.14-.01-.27-.02-.4,0-.13-.02-.24-.05-.35-.02-.11-.05-.19-.09-.26l.18.06c-.12.11-.23.24-.34.39-.11.15-.22.32-.32.5-.1.18-.2.37-.29.57s-.18.4-.27.61c-.04.09-.09.16-.15.2-.06.05-.13.07-.21.07-.04,0-.08,0-.12-.03-.04-.02-.08-.05-.11-.1-.04-.05-.07-.13-.09-.23-.03-.14-.06-.29-.08-.46-.02-.17-.04-.34-.05-.52-.01-.18-.02-.37-.02-.56,0-.19,0-.38.01-.56.01-.19.03-.37.05-.54,0-.09.04-.16.1-.22.06-.06.14-.09.25-.09.13,0,.21.04.25.13.04.08.05.19.04.32-.02.14-.03.3-.04.45-.01.16-.02.32-.01.48,0,.16,0,.32.02.48s.03.32.06.49l-.14.03c.1-.25.21-.49.33-.72s.23-.43.36-.61c.12-.19.25-.34.38-.47.1-.1.19-.17.28-.22.09-.05.18-.08.28-.08s.18.04.24.11c.06.07.11.21.14.4.02.11.03.24.03.39s0,.3,0,.46.01.31.03.46c.02.15.06.28.12.39h-.19c.07-.12.14-.26.21-.41.06-.15.13-.31.19-.48.06-.17.12-.33.18-.5.06-.16.12-.32.17-.46.06-.14.12-.26.17-.36.06-.11.13-.18.19-.23s.13-.06.21-.06.13.02.17.05c.04.03.07.07.08.12.01.05.01.11,0,.18s-.04.14-.08.22c-.07.13-.14.28-.2.45-.07.17-.13.34-.2.52-.07.18-.14.37-.21.55-.07.18-.14.36-.22.53-.08.17-.15.32-.24.46-.06.1-.12.16-.17.2s-.11.05-.16.05Z"/>
          <path class="cls-5" d="m36.26,10.2c-.34,0-.59-.05-.74-.15-.15-.1-.21-.22-.18-.36.01-.06.04-.11.07-.15.04-.04.09-.06.15-.06.05,0,.09,0,.12.02s.08.03.13.05.11.03.18.05.16.02.27.02.2,0,.29-.02.16-.03.23-.05c.07-.02.13-.05.19-.08,0-.07-.05-.13-.12-.18-.07-.06-.16-.11-.27-.17-.11-.06-.22-.11-.34-.17-.12-.06-.22-.13-.32-.21s-.17-.18-.22-.28-.06-.23-.03-.38c.03-.15.1-.28.21-.4.11-.12.25-.23.4-.33.16-.1.32-.18.5-.24s.35-.12.51-.15.3-.05.41-.05c.09,0,.15.01.2.04s.08.07.09.12c.01.05.01.1,0,.16-.01.06-.04.12-.09.17s-.12.08-.2.09c-.27.05-.51.11-.72.19-.21.07-.37.15-.49.23s-.19.17-.2.25c-.01.06.01.12.08.18.06.06.15.11.26.17.11.06.22.12.34.18.12.07.23.14.34.22.1.08.18.18.24.28.06.11.07.23.04.37-.02.12-.07.23-.14.31-.07.08-.16.15-.28.2s-.25.08-.4.11c-.15.02-.32.03-.5.03Z"/>
          <path class="cls-5" d="m39.05,10.2c-.25,0-.45-.05-.6-.14-.15-.09-.25-.23-.3-.41-.05-.18-.05-.41,0-.67.05-.23.11-.45.19-.65.08-.2.16-.39.23-.58.08-.19.13-.37.17-.54.02-.09.05-.17.11-.23s.13-.09.23-.09c.08,0,.14.02.19.06.04.04.07.1.08.17.01.07,0,.15-.01.24-.03.15-.07.3-.13.45-.06.15-.12.3-.18.44s-.12.29-.17.42c-.05.13-.09.26-.11.37-.04.17-.03.31.03.4.05.1.16.14.33.14.14,0,.25-.01.34-.04.09-.02.17-.05.23-.08s.12-.06.17-.09c.05-.03.11-.04.16-.04.08,0,.13.03.16.08.03.05.04.12.02.2-.01.07-.04.14-.09.2s-.12.12-.2.17c-.12.07-.25.12-.39.15s-.3.05-.46.05Z"/>
          <path class="cls-5" d="m41.89,10.19c-.24,0-.44-.04-.6-.11-.16-.07-.29-.17-.38-.3s-.15-.28-.17-.45c-.02-.17-.02-.35.02-.54.02-.12.06-.24.1-.37.04-.13.09-.26.15-.38.06-.13.12-.25.2-.37.06-.11.14-.2.23-.27.09-.07.18-.1.28-.1.04,0,.08.01.11.03.04.02.06.05.07.09.01.04,0,.09-.02.15-.06.1-.12.21-.19.34s-.13.27-.19.42c-.06.15-.1.31-.14.48-.03.15-.03.29,0,.41.04.12.1.21.19.28.09.07.21.1.36.1s.26,0,.37-.03c.1-.02.19-.04.27-.06.07-.02.14-.05.19-.06.05-.02.1-.03.13-.03.08,0,.14.02.17.07.04.05.05.11.03.2-.02.1-.08.18-.17.26s-.23.14-.4.18c-.17.04-.37.07-.61.07Zm-.65-1.22c-.07.02-.13.01-.16-.01-.03-.02-.05-.06-.06-.11,0-.05,0-.1,0-.15.02-.08.06-.14.12-.2.07-.06.15-.1.24-.11.09-.02.19-.04.3-.05.11-.02.22-.03.33-.05s.23-.03.35-.04c.12-.01.24-.02.37-.02.12,0,.2.02.24.07.04.04.05.11.04.19-.02.1-.08.18-.17.23-.09.05-.2.08-.31.09-.13,0-.26.02-.38.03s-.24.03-.34.04c-.11.02-.21.03-.31.05s-.18.03-.26.05Zm.16-1.33c-.14,0-.25-.03-.31-.09-.06-.06-.08-.13-.06-.22,0-.05.02-.09.06-.13.03-.04.08-.07.15-.09.22-.06.45-.1.69-.13s.47-.06.69-.07c.22-.01.4-.02.55-.02.14,0,.25.04.32.11.07.07.09.16.07.26-.01.06-.04.11-.09.15s-.11.06-.21.06c-.24,0-.45,0-.65.03-.2.02-.37.04-.53.06-.16.02-.29.04-.4.06s-.2.03-.27.03Z"/>
          <path class="cls-5" d="m46.07,7.53h-.46c-.14,0-.27,0-.4,0s-.25,0-.38-.01c-.12,0-.25-.01-.38-.02-.12,0-.22-.03-.28-.06s-.1-.08-.12-.13c-.02-.05-.02-.12,0-.2,0-.06.03-.1.08-.14.04-.04.1-.06.18-.06.15,0,.29,0,.42,0,.13,0,.25,0,.36.01s.22,0,.34.01.23,0,.36,0c.11,0,.21,0,.29-.01.08,0,.16-.02.23-.03.08,0,.16-.01.25-.01s.15.02.18.07c.03.05.04.1.03.17-.02.1-.06.18-.14.23-.07.06-.16.1-.26.13-.1.03-.2.04-.3.04Zm-1.21,2.7c-.09,0-.16-.03-.21-.1-.06-.06-.09-.19-.09-.36,0-.11,0-.23.02-.37.01-.13.04-.29.07-.47s.08-.38.14-.62.14-.52.23-.84c.02-.08.06-.15.12-.2.06-.05.12-.08.19-.08.14,0,.23.04.26.13.03.09.03.23-.02.43-.09.32-.15.6-.2.83-.05.23-.09.42-.11.58-.02.15-.04.28-.05.38s-.01.18-.02.25c0,.07-.01.13-.02.18-.02.09-.05.16-.1.2s-.12.06-.2.06Z"/>
          <path class="cls-5" d="m49.2,7.53h-.46c-.14,0-.27,0-.4,0s-.25,0-.38-.01c-.12,0-.25-.01-.38-.02-.12,0-.22-.03-.28-.06s-.1-.08-.12-.13c-.02-.05-.02-.12,0-.2,0-.06.03-.1.08-.14.04-.04.1-.06.18-.06.15,0,.29,0,.42,0,.13,0,.25,0,.36.01s.22,0,.34.01.23,0,.36,0c.11,0,.21,0,.29-.01.08,0,.16-.02.23-.03.08,0,.16-.01.25-.01s.15.02.18.07c.03.05.04.1.03.17-.02.1-.06.18-.14.23-.07.06-.16.1-.26.13-.1.03-.2.04-.3.04Zm-1.21,2.7c-.09,0-.16-.03-.21-.1-.06-.06-.09-.19-.09-.36,0-.11,0-.23.02-.37.01-.13.04-.29.07-.47s.08-.38.14-.62.14-.52.23-.84c.02-.08.06-.15.12-.2.06-.05.12-.08.19-.08.14,0,.23.04.26.13.03.09.03.23-.02.43-.09.32-.15.6-.2.83-.05.23-.09.42-.11.58-.02.15-.04.28-.05.38s-.01.18-.02.25c0,.07-.01.13-.02.18-.02.09-.05.16-.1.2s-.12.06-.2.06Z"/>
          <path class="cls-5" d="m51.2,10.19c-.24,0-.44-.04-.6-.11-.16-.07-.29-.17-.38-.3s-.15-.28-.17-.45c-.02-.17-.02-.35.02-.54.02-.12.06-.24.1-.37.04-.13.09-.26.15-.38.06-.13.12-.25.2-.37.06-.11.14-.2.23-.27.09-.07.18-.1.28-.1.04,0,.08.01.11.03.04.02.06.05.07.09.01.04,0,.09-.02.15-.06.1-.12.21-.19.34s-.13.27-.19.42c-.06.15-.1.31-.14.48-.03.15-.03.29,0,.41.04.12.1.21.19.28.09.07.21.1.36.1s.26,0,.37-.03c.1-.02.19-.04.27-.06.07-.02.14-.05.19-.06.05-.02.1-.03.13-.03.08,0,.14.02.17.07.04.05.05.11.03.2-.02.1-.08.18-.17.26s-.23.14-.4.18c-.17.04-.37.07-.61.07Zm-.65-1.22c-.07.02-.13.01-.16-.01-.03-.02-.05-.06-.06-.11,0-.05,0-.1,0-.15.02-.08.06-.14.12-.2.07-.06.15-.1.24-.11.09-.02.19-.04.3-.05.11-.02.22-.03.33-.05s.23-.03.35-.04c.12-.01.24-.02.37-.02.12,0,.2.02.24.07.04.04.05.11.04.19-.02.1-.08.18-.17.23-.09.05-.2.08-.31.09-.13,0-.26.02-.38.03s-.24.03-.34.04c-.11.02-.21.03-.31.05s-.18.03-.26.05Zm.16-1.33c-.14,0-.25-.03-.31-.09-.06-.06-.08-.13-.06-.22,0-.05.02-.09.06-.13.03-.04.08-.07.15-.09.22-.06.45-.1.69-.13s.47-.06.69-.07c.22-.01.4-.02.55-.02.14,0,.25.04.32.11.07.07.09.16.07.26-.01.06-.04.11-.09.15s-.11.06-.21.06c-.24,0-.45,0-.65.03-.2.02-.37.04-.53.06-.16.02-.29.04-.4.06s-.2.03-.27.03Z"/>
          <path class="cls-5" d="m53.22,10.22c-.11,0-.2-.05-.25-.15-.06-.1-.06-.25-.03-.45.03-.14.08-.29.15-.47.07-.17.17-.37.29-.58.03-.13.04-.26.05-.37,0-.11,0-.22,0-.34,0-.11-.02-.24-.04-.38-.01-.11,0-.2.05-.27s.13-.1.24-.1.21.06.28.17c.07.11.1.3.09.57h-.12c.15-.21.31-.39.48-.53.17-.15.34-.26.51-.33.17-.07.35-.11.52-.11.16,0,.29.03.39.08.1.05.18.12.23.21.06.09.09.18.1.29s0,.22-.02.33c-.03.14-.08.27-.17.39-.08.12-.19.24-.33.35-.14.11-.31.21-.5.31-.2.1-.42.19-.68.27.13.1.28.19.47.29s.39.17.6.24c.13.04.21.08.26.13s.06.11.04.17c-.02.1-.07.16-.14.2-.08.04-.18.06-.31.06-.08,0-.18-.02-.31-.06-.12-.04-.26-.09-.4-.16-.14-.07-.28-.14-.42-.23-.14-.09-.26-.18-.37-.27-.11-.1-.19-.19-.25-.29-.02-.05-.03-.11-.02-.17s.04-.12.08-.18c.04-.06.1-.09.16-.11.3-.07.55-.16.76-.25.21-.09.38-.18.51-.28.13-.1.23-.19.3-.27s.11-.16.12-.23c.01-.07,0-.13-.02-.17s-.08-.07-.17-.07c-.07,0-.16.02-.26.06-.1.04-.21.11-.33.19-.12.09-.23.19-.35.32-.12.13-.23.28-.35.46-.11.18-.21.38-.3.6-.09.22-.16.47-.22.74-.02.09-.04.16-.07.22-.03.05-.06.09-.1.11-.04.02-.09.03-.14.03Z"/>
        </g>
        <g>
          <g>
            <circle class="cls-2" cx="36.11" cy="17.29" r="2.19"/>
            <circle class="cls-2" cx="47.27" cy="22.16" r="2.19"/>
          </g>
          <g>
            <path class="cls-2" d="m33.05,26.4c.15,1.17.98,1.81,1.18,1.92,1.92,1.12,3.69.09,3.69.09h0s.45,2,2.57,2.64c.22.07,1.25.24,2.21-.45,1.28-.91,1.57-2.84,1.29-4.7-.13-.88-.47-2.2-1.18-3.63-.67-1.35-2.27-2.05-3.72-1.62-1.54.46-2.73,1.11-3.47,1.61-1.55,1.06-2.77,2.58-2.57,4.14Z"/>
            <circle class="cls-2" cx="42.85" cy="17.07" r="2.19"/>
          </g>
        </g>
      </g>
      <g>
        <path class="cls-2" d="m43.52,42.26c-2.01,1.66-4.91,1.66-6.93,0L15.05,24.54v30h50v-30l-21.54,17.72Z"/>
        <path class="cls-6" d="m43.52,36.82l21.54,17.72H15.05l21.54-17.72c2.01-1.66,4.91-1.66,6.93,0Z"/>
      </g>
    </g>
  </g>
</svg>