<?xml version="1.0" encoding="utf-8"?>
<!-- Generator: Adobe Illustrator 27.4.1, SVG Export Plug-In . SVG Version: 6.00 Build 0)  -->
<svg version="1.1" id="Layer_1" xmlns="http://www.w3.org/2000/svg" xmlns:xlink="http://www.w3.org/1999/xlink" x="0px" y="0px"
	 viewBox="0 0 512 512" style="enable-background:new 0 0 512 512;" xml:space="preserve">
<style type="text/css">
	.st0{fill:#FFFFFF;}
</style>
<path class="st0" d="M226.5,92.9c14.3,42.9-0.3,86.2-32.6,96.8s-70.1-15.6-84.4-58.5s0.3-86.2,32.6-96.8S212.2,50,226.5,92.9z
	 M100.4,198.6c18.9,32.4,14.3,70.1-10.2,84.1s-59.7-0.9-78.5-33.3s-14.4-70.1,10.1-84.1S81.5,166.2,100.4,198.6L100.4,198.6z
	 M69.2,401.2C121.6,259.9,214.7,224,256,224s134.4,35.9,186.8,177.2c3.6,9.7,5.2,20.1,5.2,30.5v1.6c0,25.8-20.9,46.7-46.7,46.7
	c-11.5,0-22.9-1.4-34-4.2l-88-22c-15.3-3.8-31.3-3.8-46.6,0l-88,22c-11.1,2.8-22.5,4.2-34,4.2C84.9,480,64,459.1,64,433.3v-1.6
	C64,421.3,65.6,410.9,69.2,401.2L69.2,401.2z M421.8,282.7c-24.5-14-29.1-51.7-10.2-84.1s54-47.3,78.5-33.3s29.1,51.7,10.2,84.1
	S446.3,296.7,421.8,282.7L421.8,282.7z M310.1,189.7c-32.3-10.6-46.9-53.9-32.6-96.8s52.1-69.1,84.4-58.5s46.9,53.9,32.6,96.8
	S342.4,200.3,310.1,189.7z"/>
</svg>
