<?xml version="1.0" encoding="UTF-8"?>
<svg id="Layer_2" data-name="Layer 2" xmlns="http://www.w3.org/2000/svg" viewBox="0 0 36.85 36.85">
  <defs>
    <style>
      .cls-1 {
        fill: #fff;
      }

      .cls-2 {
        fill: none;
        stroke: #fff;
        stroke-miterlimit: 10;
      }

      .cls-3 {
        fill: #48c6e2;
      }
    </style>
  </defs>
  <g>
    <g>
      <path class="cls-3" d="m26.85,3.77l-10.62,11.6c-.08.09-.22.09-.31.01l-.08-.07c-.09-.08-.09-.22-.01-.31L26.37,3.49c-2.37-1.26-5.07-1.98-7.94-1.98C9.08,1.51,1.51,9.08,1.51,18.43s7.57,16.91,16.91,16.91,16.91-7.57,16.91-16.91c0-6.27-3.42-11.74-8.49-14.66Z"/>
      <path class="cls-1" d="m26.37,3.49l-10.54,11.51c-.08.09-.07.23.01.31l.08.07c.09.08.23.07.31-.01L26.85,3.77c-.16-.09-.31-.19-.48-.28Z"/>
    </g>
    <path class="cls-1" d="m6.93,12.08c2.18-.3,1.95-1.34,3.09-2.58,1.18-1.29,4.89-1.23,5.65,1.13.25.76.46,2.44.66,3.46.02.09.06.3.2.54,0,0,.17.28.47.49,1.1.79,4.37.76,4.37.76,3.27-.03,3.67-.08,4.26-.34.5-.21,1.39-.6,2.04-1.49.3-.42.7-1.14.97-2.02.25-.82.26-1.41.72-1.64.2-.1.53-.15.74,0,.76.54-.08,3.67-1.73,5.37-.75.77-1.66,1.23-1.71,1.27-.6.39-1.37.37-1.3.49.63,1.03.41,6.38,0,10.03-.04.35-.28.64-.63.64h-1.73c-.07,0-.12-.05-.12-.12,0-.3-.02-1.5.96-1.5.31,0,.09-1.16-.84-2.34-.41-.52-.58-.52-.7-.18-.09.26-.13,2.37-.12,3.51,0,.35-.28.64-.63.64h-1.23c-.22,0-.39-.18-.38-.4.03-.45.18-1.12.84-1.12.5,0-.41-1.71-.68-2.29s-.55-1.53-.86-1.33c-.78.5-1.4.64-1.77.74-.17.05-.24.99-.24,2.02,0,.92,0,1.56.01,2.01,0,.21-.17.38-.38.38h-1.65c-.25,0-.43-.23-.37-.47.1-.42.31-.97.73-.97.51,0,.28-1.32-.17-2.26-.4-.82-1-1.28-1-1.28-.22-.18-.55-.02-.55.27l.07,4.32c0,.21-.17.39-.38.39h-1.5c-.22,0-.39-.18-.38-.4.03-.44.19-1.09.9-1.1.77-.01-1.21-2.92-1.21-5.78,0-2.15.27-5.74-.76-5.77-2.96-.07-3.02-.32-3.48-.76-.65-.63-1.02-2.2-.19-2.31Z"/>
    <g>
      <path class="cls-3" d="m15.04,14.41c.02.7-.62,1.29-1.45,1.32s-1.51-.51-1.54-1.21.58-4.47,1.57-4.5,1.39,3.7,1.41,4.4Z"/>
      <path class="cls-3" d="m7.53,12.37c.09.17-.03.41-.27.53s-.51.09-.59-.09c-.14-.29-.04-.5.22-.59.23-.08.5-.15.65.14Z"/>
      <path class="cls-3" d="m11.27,16.24s3.09.72,5.15-1.87l.29.49s-.77,1.17-2.15,1.64c-2.03.69-3.23.35-3.23.35l-.07-.6Z"/>
    </g>
  </g>
  <circle class="cls-2" cx="18.43" cy="18.43" r="16.91"/>
</svg>